<?xml version="1.0" encoding="UTF-8"?>
<svg version="1.1" viewBox="0 0 1532 1624" width="383" height="406" xmlns="http://www.w3.org/2000/svg">
<path transform="translate(1070,750)" d="m0 0h46l23 3 27 6 30 10 25 11 16 9 19 13 15 11 13 10 12 11 12 12 7 8 24 24 15 14 8 7 11 12 9 10 7 8 39 39 7 8 51 51 7 8 8 8 8 7 7 8v7l-13 24-15 28-21 42-13 23-17 28-14 25-17 32-10 19-4 5-6 1-8-7-37-37-7-8-31-31-7-8-19-19-7-8-10-10-7-8-9-9-7-8-15-16-7-8-9-10-89-89-10-6-11-4h-16l-10 4-8 6-6 7-6 13-12 42-10 36-10 38-23 85-35 129-21 78-19 70-14 52-4 12-4 4-4 1-54 2-178 4h-18l-5-2-1-1v-9l22-80 15-53 10-35 11-42 15-54 13-50 10-40 18-69 13-49 21-79 14-49 12-36 10-23 11-22 14-22 9-12 18-22 7-6 5-5 12-11 20-15 18-11 18-10 28-12 25-8 24-6 22-4z" fill="#000"/>
<path transform="translate(857,29)" d="m0 0h18l4 2-1 10-21 75-17 60-20 71-21 76-17 59-5 19v8l3 13 6 10 6 7 12 7 13 3h8l27-7 58-16 67-18 147-39 167-44 65-17 19-4h10l6 10 12 21 12 19 13 22 14 26 9 16 16 28 14 25 10 18 8 14 8 9 6 12v6l-9 4-35 10-98 26-77 20-47 13-77 19-61 16-93 25-68 18-64 16-32 6-20 2h-32l-27-3-24-5-24-7-26-10-12-6-18-12-18-11-18-14-14-12-22-22-11-14-10-13-12-19-10-18-8-17-9-25-6-21-5-28-2-19v-52l4-27 9-36 21-74 19-74 6-25 5-24 8-32 9-32 4-15 3-3 68-2 79-2 16-1h35z" fill="#000"/>
<path transform="translate(152,302)" d="m0 0 5 1 8 6 125 125 2 1v2l4 2 106 106 8 7 75 75 9 11 18 18 8 7 18 18 8 7 14 14 8 10 21 21 8 7 10 10 8 7 12 16 13 18 10 15 14 27 11 27 8 26 6 29 2 15 1 13v29l-2 24-5 27-6 23-7 21-10 23-12 23-12 18-12 16-10 11-7 8-7 7-11 9-9 8-18 13-20 12-14 8-24 11-27 9-39 10-97 28-39 12-79 23-40 11h-8l-5-4-13-23-10-17-16-26-15-24-17-28-15-24-11-17-17-28-10-18-4-10 1-5 5-4 19-6 58-16 55-14 68-19 43-11 62-17 41-11 18-5 9-5 7-6 7-11 4-14v-13l-4-11-6-9-8-8-7-8-38-38-8-7-14-13-8-7-15-14-14-15-11-12-8-7-21-21-8-7-18-18-8-7-8-8-8-7-37-37-7-8-7-7-7-8-8-9-8-7-14-14-8-7-77-77-8-7-15-15-9-7-2-4 1-9 6-12 8-13 15-25 14-24 16-27 12-21 10-16 10-15 11-19 10-18 13-23z" fill="#000"/>
</svg>
